<?xml version="1.0" encoding="UTF-8" standalone="no"?>
<svg
   xmlns:dc="http://purl.org/dc/elements/1.1/"
   xmlns:cc="http://creativecommons.org/ns#"
   xmlns:rdf="http://www.w3.org/1999/02/22-rdf-syntax-ns#"
   xmlns:svg="http://www.w3.org/2000/svg"
   xmlns="http://www.w3.org/2000/svg"
   xmlns:sodipodi="http://sodipodi.sourceforge.net/DTD/sodipodi-0.dtd"
   xmlns:inkscape="http://www.inkscape.org/namespaces/inkscape"
   version="1.1"
   width="297mm"
   height="210mm"
   viewBox="0 0 297.00002 210"
   id="svg142"
   sodipodi:docname="final.dsv.svg"
   inkscape:version="0.92.2 (5c3e80d, 2017-08-06)">
  <metadata
     id="metadata148">
    <rdf:RDF>
      <cc:Work
         rdf:about="">
        <dc:format>image/svg+xml</dc:format>
        <dc:type
           rdf:resource="http://purl.org/dc/dcmitype/StillImage" />
        <dc:title></dc:title>
      </cc:Work>
    </rdf:RDF>
  </metadata>
  <defs
     id="defs146" />
  <sodipodi:namedview
     pagecolor="#ffffff"
     bordercolor="#666666"
     borderopacity="1"
     objecttolerance="10"
     gridtolerance="10"
     guidetolerance="10"
     inkscape:pageopacity="0"
     inkscape:pageshadow="2"
     inkscape:window-width="1920"
     inkscape:window-height="1017"
     id="namedview144"
     showgrid="false"
     inkscape:zoom="0.81078517"
     inkscape:cx="655.23729"
     inkscape:cy="399.86271"
     inkscape:window-x="-8"
     inkscape:window-y="-8"
     inkscape:window-maximized="1"
     inkscape:current-layer="svg142" />
  <path
     style="font-weight:400;font-size:medium;font-family:Roboto, sans-serif;text-anchor:start;opacity:1;mix-blend-mode:normal;fill:none;stroke:#fd0000;stroke-width:0.1;stroke-linecap:round;stroke-linejoin:miter;stroke-miterlimit:7.87931013;stroke-dasharray:none;stroke-dashoffset:0;stroke-opacity:1"
     inkscape:connector-curvature="0"
     font-weight="400"
     stroke-miterlimit="4"
     id="path33"
     d="m 23.416052,52.181868 v -10" />
  <path
     style="font-weight:400;font-size:medium;font-family:Roboto, sans-serif;text-anchor:start;opacity:1;mix-blend-mode:normal;fill:none;stroke:#fd0000;stroke-width:0.1;stroke-linecap:round;stroke-linejoin:miter;stroke-miterlimit:7.87931013;stroke-dasharray:none;stroke-dashoffset:0;stroke-opacity:1"
     inkscape:connector-curvature="0"
     font-weight="400"
     stroke-miterlimit="4"
     id="path35"
     d="m 113.41605,52.181868 v -10" />
  <path
     style="font-weight:400;font-size:medium;font-family:Roboto, sans-serif;text-anchor:start;opacity:1;mix-blend-mode:normal;fill:none;stroke:#fd0000;stroke-width:0.1;stroke-linecap:round;stroke-linejoin:miter;stroke-miterlimit:7.87931013;stroke-dasharray:none;stroke-dashoffset:0;stroke-opacity:1"
     inkscape:connector-curvature="0"
     font-weight="400"
     stroke-miterlimit="4"
     id="path39"
     d="m 256.2953,188.52453 h -10" />
  <path
     style="font-weight:400;font-size:medium;font-family:Roboto, sans-serif;text-anchor:start;opacity:1;mix-blend-mode:normal;fill:none;stroke:#fd0000;stroke-width:0.1;stroke-linecap:round;stroke-linejoin:miter;stroke-miterlimit:7.87931013;stroke-dasharray:none;stroke-dashoffset:0;stroke-opacity:1"
     inkscape:connector-curvature="0"
     font-weight="400"
     stroke-miterlimit="4"
     id="path47"
     d="m 140.2953,188.52453 h 10" />
  <path
     style="font-weight:normal;font-size:medium;font-family:sans-serif;text-anchor:start;opacity:1;mix-blend-mode:normal;fill:none;stroke:#fd0000;stroke-width:0.1;stroke-linecap:round;stroke-linejoin:miter;stroke-miterlimit:7.87931013;stroke-dasharray:none;stroke-dashoffset:0;stroke-opacity:1"
     d="m 243.2953,22.014238 v 0 h -9.00001 v 0 0 -3 h -9 v 3 0 0 h -9 v 0 0 -3 h -9 v 3 0 0 h -9 v 0 0 -3 h -9 v 3 0 0 h -9 v 0 0 -3 h -9 v 3 0 0 h -9 v 0 0 -3 h -9 v 3 0 0"
     id="path68"
     inkscape:connector-curvature="0" />
  <path
     style="font-weight:normal;font-size:medium;font-family:sans-serif;text-anchor:start;opacity:1;mix-blend-mode:normal;fill:none;stroke:#fd0000;stroke-width:0.1;stroke-linecap:round;stroke-linejoin:miter;stroke-miterlimit:7.87931013;stroke-dasharray:none;stroke-dashoffset:0;stroke-opacity:1"
     d="m 243.2953,52.014238 v 0 0 3 h -9.00001 v -3 0 0 h -9 v 0 0 3 h -9 v -3 0 0 h -9 v 0 0 3 h -9 v -3 0 0 h -9 v 0 0 3 h -9 v -3 0 0 h -9 v 0 0 3 h -9 v -3 0 0 h -9 v 0"
     id="path71"
     inkscape:connector-curvature="0" />
  <path
     style="font-weight:normal;font-size:medium;font-family:sans-serif;text-anchor:start;opacity:1;mix-blend-mode:normal;fill:none;stroke:#fd0000;stroke-width:0.1;stroke-linecap:round;stroke-linejoin:miter;stroke-miterlimit:7.87931013;stroke-dasharray:none;stroke-dashoffset:0;stroke-opacity:1"
     d="m 243.2953,52.014238 v 0 0 h 3 v -15 h -3 v 0 0 -15 0"
     id="path77"
     inkscape:connector-curvature="0" />
  <path
     style="font-weight:normal;font-size:medium;font-family:sans-serif;text-anchor:start;opacity:1;mix-blend-mode:normal;fill:none;stroke:#fd0000;stroke-width:0.1;stroke-linecap:round;stroke-linejoin:miter;stroke-miterlimit:7.87931013;stroke-dasharray:none;stroke-dashoffset:0;stroke-opacity:1"
     d="m 246.2953,55.014238 v 0 h 15 v 0 0 -3 h 15 v 3 0 0"
     id="path80"
     inkscape:connector-curvature="0" />
  <path
     style="font-weight:normal;font-size:medium;font-family:sans-serif;text-anchor:start;opacity:1;mix-blend-mode:normal;fill:none;stroke:#fd0000;stroke-width:0.1;stroke-linecap:round;stroke-linejoin:miter;stroke-miterlimit:7.87931013;stroke-dasharray:none;stroke-dashoffset:0;stroke-opacity:1"
     d="m 153.2953,52.014238 v 0 0 h -3 v -15 h 3 v 0 0 -15 0"
     id="path83"
     inkscape:connector-curvature="0" />
  <path
     style="font-weight:normal;font-size:medium;font-family:sans-serif;text-anchor:start;opacity:1;mix-blend-mode:normal;fill:none;stroke:#fd0000;stroke-width:0.1;stroke-linecap:round;stroke-linejoin:miter;stroke-miterlimit:7.87931013;stroke-dasharray:none;stroke-dashoffset:0;stroke-opacity:1"
     d="m 150.2953,55.014238 v 0 h -15 v 0 0 -3 h -15 v 3 0 0"
     id="path86"
     inkscape:connector-curvature="0" />
  <path
     style="font-weight:normal;font-size:medium;font-family:sans-serif;text-anchor:start;opacity:1;mix-blend-mode:normal;fill:none;stroke:#fd0000;stroke-width:0.1;stroke-linecap:round;stroke-linejoin:miter;stroke-miterlimit:7.87931013;stroke-dasharray:none;stroke-dashoffset:0;stroke-opacity:1"
     d="m 150.2953,55.014238 v 0 0 h 3 v 8.34439 h -3 v 0 0 8.34439 0 0 h 3 v 8.34439 h -3 v 0 0 8.34439 0 0 h 3 v 8.34439 h -3 v 0 0 8.344392 0 0 h 3 v 8.34439 h -3 v 0 0 8.34439 0 0 h 3 v 8.34439 h -3 v 0 0 8.34439 0 0 h 3 v 8.34438 h -3 v 0 0 8.34439 0 0 h 3 v 8.34439 h -3 v 0 0 8.34439 0 0 h 3 v 8.34439 h -3 v 0 0 8.34439 0"
     id="path89"
     inkscape:connector-curvature="0" />
  <path
     style="font-weight:normal;font-size:medium;font-family:sans-serif;text-anchor:start;opacity:1;mix-blend-mode:normal;fill:none;stroke:#fd0000;stroke-width:0.1;stroke-linecap:round;stroke-linejoin:miter;stroke-miterlimit:7.87931013;stroke-dasharray:none;stroke-dashoffset:0;stroke-opacity:1"
     d="m 243.2953,55.014238 v 0 0 h 3 v 8.34439 h -3 v 0 0 8.34439 0 0 h 3 v 8.34439 h -3 v 0 0 8.34439 0 0 h 3 v 8.34439 h -3 v 0 0 8.344392 0 0 h 3 v 8.34439 h -3 v 0 0 8.34439 0 0 h 3 v 8.34439 h -3 v 0 0 8.34439 0 0 h 3 v 8.34438 h -3 v 0 0 8.34439 0 0 h 3 v 8.34439 h -3 v 0 0 8.34439 0 0 h 3 v 8.34439 h -3 v 0 0 8.34439 0"
     id="path95"
     inkscape:connector-curvature="0" />
  <path
     style="font-weight:normal;font-size:medium;font-family:sans-serif;text-anchor:start;opacity:1;mix-blend-mode:normal;fill:none;stroke:#fd0000;stroke-width:0.1;stroke-linecap:round;stroke-linejoin:miter;stroke-miterlimit:7.87931013;stroke-dasharray:none;stroke-dashoffset:0;stroke-opacity:1"
     d="m 243.2953,188.52453 v 0 0 3 h -9.00001 v -3 0 0 h -9 v 0 0 3 h -9 v -3 0 0 h -9 v 0 0 3 h -9 v -3 0 0 h -9 v 0 0 3 h -9 v -3 0 0 h -9 v 0 0 3 h -9 v -3 0 0 h -9 v 0"
     id="path101"
     inkscape:connector-curvature="0" />
  <path
     style="font-weight:normal;font-size:medium;font-family:sans-serif;text-anchor:start;opacity:1;mix-blend-mode:normal;fill:none;stroke:#fd0000;stroke-width:0.1;stroke-linecap:round;stroke-linejoin:miter;stroke-miterlimit:7.87931013;stroke-dasharray:none;stroke-dashoffset:0;stroke-opacity:1"
     d="m 113.41605,42.181868 v 0 h -9.00001 v 0 0 -3 h -8.999998 v 3 0 0 h -9 v 0 0 -3 h -9 v 3 0 0 h -9 v 0 0 -3 h -9 v 3 0 0 h -9 v 0 0 -3 h -9 v 3 0 0 h -9 v 0 0 -3 h -9 v 3 0 0"
     id="path104"
     inkscape:connector-curvature="0" />
  <path
     style="font-weight:normal;font-size:medium;font-family:sans-serif;text-anchor:start;opacity:1;mix-blend-mode:normal;fill:none;stroke:#fd0000;stroke-width:0.1;stroke-linecap:round;stroke-linejoin:miter;stroke-miterlimit:7.87931013;stroke-dasharray:none;stroke-dashoffset:0;stroke-opacity:1"
     d="m 113.41605,52.181868 v 0 0 3 h -9.00001 v -3 0 0 h -8.999998 v 0 0 3 h -9 v -3 0 0 h -9 v 0 0 3 h -9 v -3 0 0 h -9 v 0 0 3 h -9 v -3 0 0 h -9 v 0 0 3 h -9 v -3 0 0 h -9 v 0"
     id="path119"
     inkscape:connector-curvature="0" />
  <path
     style="font-weight:normal;font-size:medium;font-family:sans-serif;text-anchor:start;opacity:1;mix-blend-mode:normal;fill:none;stroke:#fd0000;stroke-width:0.1;stroke-linecap:round;stroke-linejoin:miter;stroke-miterlimit:7.87931013;stroke-dasharray:none;stroke-dashoffset:0;stroke-opacity:1"
     d="m 120.2953,55.014238 v 0 l 1.25,8.34439 v 0 l 0.0222,0.14834 -2.9669,0.44444 1.20556,8.0477 2.9669,-0.44444 0.0222,0.14834 v 0 l 1.25,8.34439 v 0 l 0.0222,0.14834 -2.9669,0.44444 1.20556,8.0477 2.9669,-0.44444 0.0222,0.14834 v 0 l 1.25,8.34439 v 0 l 0.0222,0.14834 -2.9669,0.44444 1.20556,8.047702 2.9669,-0.44444 0.0222,0.14834 v 0 l 1.25,8.34439 v 0 l 0.0222,0.14834 -2.9669,0.44444 1.20556,8.0477 2.9669,-0.44444 0.0222,0.14834 v 0 l 1.25,8.34439 v 0 l 0.0222,0.14834 -2.9669,0.44444 1.20556,8.0477 2.9669,-0.44444 0.0222,0.14834 v 0 l 1.25,8.34438 v 0 l 0.0222,0.14834 -2.9669,0.44444 1.20556,8.0477 2.9669,-0.44444 0.0222,0.14834 v 0 l 1.25,8.34439 v 0 l 0.0222,0.14834 -2.9669,0.44444 1.20556,8.0477 2.9669,-0.44444 0.0222,0.14834 v 0 l 1.25,8.34439 v 0 l 0.0222,0.14834 -2.9669,0.44444 1.20556,8.0477 2.9669,-0.44444 0.0222,0.14834 v 0"
     id="path128"
     inkscape:connector-curvature="0" />
  <path
     style="font-weight:normal;font-size:medium;font-family:sans-serif;text-anchor:start;opacity:1;mix-blend-mode:normal;fill:none;stroke:#fd0000;stroke-width:0.1;stroke-linecap:round;stroke-linejoin:miter;stroke-miterlimit:7.87931013;stroke-dasharray:none;stroke-dashoffset:0;stroke-opacity:1"
     d="m 276.2953,55.014238 v 0 l -0.022,0.14834 2.9669,0.44444 -1.2055,8.0477 -2.9669,-0.44444 -0.022,0.14834 v 0 l -1.25,8.34439 v 0 l -0.022,0.14834 2.9669,0.44444 -1.2055,8.0477 -2.9669,-0.44444 -0.022,0.14834 v 0 l -1.25,8.34439 v 0 l -0.022,0.14834 2.9669,0.44444 -1.2055,8.0477 -2.9669,-0.44444 -0.022,0.14834 v 0 l -1.25,8.344392 v 0 l -0.022,0.14834 2.9669,0.44444 -1.2055,8.0477 -2.9669,-0.44444 -0.022,0.14834 v 0 l -1.25,8.34439 v 0 l -0.022,0.14834 2.9669,0.44444 -1.2055,8.0477 -2.9669,-0.44444 -0.022,0.14834 v 0 l -1.25,8.34439 v 0 l -0.022,0.14834 2.9669,0.44444 -1.2055,8.04769 -2.9669,-0.44444 -0.022,0.14834 v 0 l -1.25,8.34439 v 0 l -0.022,0.14834 2.9669,0.44444 -1.2055,8.0477 -2.9669,-0.44444 -0.022,0.14834 v 0 l -1.25,8.34439 v 0 l -0.022,0.14834 2.9669,0.44444 -1.2055,8.0477 -2.9669,-0.44444 -0.022,0.14834 v 0 l -1.25,8.34439 v 0"
     id="path131"
     inkscape:connector-curvature="0" />
  <path
     style="font-weight:400;font-size:medium;font-family:Roboto, sans-serif;text-anchor:start;opacity:1;mix-blend-mode:normal;fill:none;stroke:#fd0000;stroke-width:0.1;stroke-linecap:round;stroke-linejoin:miter;stroke-miterlimit:7.87931013;stroke-dasharray:none;stroke-dashoffset:0;stroke-opacity:1"
     inkscape:connector-curvature="0"
     font-weight="400"
     stroke-miterlimit="4"
     id="path907"
     d="M 106.41567,62.181718 H 30.415672" />
  <path
     style="font-weight:400;font-size:medium;font-family:Roboto, sans-serif;text-anchor:start;opacity:1;mix-blend-mode:normal;fill:none;stroke:#fd0000;stroke-width:0.1;stroke-linecap:round;stroke-linejoin:miter;stroke-miterlimit:7.87931013;stroke-dasharray:none;stroke-dashoffset:0;stroke-opacity:1"
     inkscape:connector-curvature="0"
     font-weight="400"
     stroke-miterlimit="4"
     id="path911"
     d="M 30.415672,62.181718 V 183.18171" />
  <path
     style="font-weight:400;font-size:medium;font-family:Roboto, sans-serif;text-anchor:start;opacity:1;mix-blend-mode:normal;fill:none;stroke:#fd0000;stroke-width:0.1;stroke-linecap:round;stroke-linejoin:miter;stroke-miterlimit:7.87931013;stroke-dasharray:none;stroke-dashoffset:0;stroke-opacity:1"
     inkscape:connector-curvature="0"
     font-weight="400"
     stroke-miterlimit="4"
     id="path915"
     d="M 106.41567,183.18171 H 30.415672" />
  <path
     style="font-weight:400;font-size:medium;font-family:Roboto, sans-serif;text-anchor:start;opacity:1;mix-blend-mode:normal;fill:none;stroke:#fd0000;stroke-width:0.1;stroke-linecap:round;stroke-linejoin:miter;stroke-miterlimit:7.87931013;stroke-dasharray:none;stroke-dashoffset:0;stroke-opacity:1"
     inkscape:connector-curvature="0"
     font-weight="400"
     stroke-miterlimit="4"
     id="path917"
     d="M 106.41567,62.181718 V 183.18171" />
  <path
     style="font-weight:normal;font-size:medium;font-family:sans-serif;text-anchor:start;opacity:1;mix-blend-mode:normal;fill:none;stroke:#fd0000;stroke-width:0.1;stroke-linecap:round;stroke-linejoin:miter;stroke-miterlimit:7.87931013;stroke-dasharray:none;stroke-dashoffset:0;stroke-opacity:1"
     d="m 113.41605,190.18186 v 0 0 3 h -9.00001 v -3 0 0 h -8.999998 v 0 0 3 h -9 v -3 0 0 h -9 v 0 0 3 h -9 v -3 0 0 h -9 v 0 0 3 h -9 v -3 0 0 h -9 v 0 0 3 h -9 v -3 0 0 h -9 v 0"
     id="path65"
     inkscape:connector-curvature="0" />
  <path
     style="font-weight:normal;font-size:medium;font-family:sans-serif;text-anchor:start;opacity:1;mix-blend-mode:normal;fill:none;stroke:#fd0000;stroke-width:0.1;stroke-linecap:round;stroke-linejoin:miter;stroke-miterlimit:7.87931013;stroke-dasharray:none;stroke-dashoffset:0;stroke-opacity:1"
     d="m 23.416062,190.18186 v 0 -0.15 h -3 v -8.1375 h 3 v -0.15 0 -8.4375 0 -0.15 h -3 v -8.1375 h 3 v -0.15 0 -8.4375 0 -0.15 h -3 v -8.1375 h 3 v -0.15 0 -8.43749 0 -0.15 h -3 v -8.1375 h 3 v -0.15 0 -8.4375 0 -0.15 h -3 v -8.1375 h 3 v -0.15 0 -8.4375 0 -0.15 h -3 v -8.137502 h 3 v -0.15 0 -8.4375 0 -0.15 h -3 v -8.1375 h 3 v -0.15 0 -8.4375 0 -0.15 h -3 v -8.1375 h 3 v -0.15 0 -8.4375 0"
     id="path125"
     inkscape:connector-curvature="0" />
  <path
     style="font-weight:normal;font-size:medium;font-family:sans-serif;text-anchor:start;opacity:1;mix-blend-mode:normal;fill:none;stroke:#fd0000;stroke-width:0.1;stroke-linecap:round;stroke-linejoin:miter;stroke-miterlimit:7.87931013;stroke-dasharray:none;stroke-dashoffset:0;stroke-opacity:1"
     d="m 113.41605,190.18186 v 0 -8.4375 0 -0.15 h 3 v -8.1375 h -3 v -0.15 0 -8.4375 0 -0.15 h 3 v -8.1375 h -3 v -0.15 0 -8.4375 0 -0.15 h 3 v -8.13749 h -3 v -0.15 0 -8.4375 0 -0.15 h 3 v -8.1375 h -3 v -0.15 0 -8.4375 0 -0.15 h 3 v -8.1375 h -3 v -0.15 0 -8.437502 0 -0.15 h 3 v -8.1375 h -3 v -0.15 0 -8.4375 0 -0.15 h 3 v -8.1375 h -3 v -0.15 0 -8.4375 0 -0.15 h 3 v -8.1375 h -3 v -0.15 0"
     id="path134"
     inkscape:connector-curvature="0" />
  <path
     style="opacity:1;fill:none;fill-rule:evenodd;stroke:#fd0000;stroke-width:0.1;stroke-linecap:butt;stroke-linejoin:miter;stroke-miterlimit:7.87931013;stroke-dasharray:none;stroke-opacity:1"
     d="m 153.29529,55.014248 v -3.00001"
     id="path4945"
     inkscape:connector-curvature="0" />
  <path
     style="opacity:1;fill:none;fill-rule:evenodd;stroke:#fd0000;stroke-width:0.1;stroke-linecap:butt;stroke-linejoin:miter;stroke-miterlimit:7.87931013;stroke-dasharray:none;stroke-opacity:1"
     d="m 153.29529,188.52453 h -3"
     id="path4947"
     inkscape:connector-curvature="0" />
  <path
     style="opacity:1;fill:none;fill-rule:evenodd;stroke:#fd0000;stroke-width:0.1;stroke-linecap:butt;stroke-linejoin:miter;stroke-miterlimit:7.87931013;stroke-dasharray:none;stroke-opacity:1"
     d="M 246.29531,188.52453 H 243.2953"
     id="path4949"
     inkscape:connector-curvature="0" />
  <path
     style="opacity:1;fill:none;fill-rule:evenodd;stroke:#fd0000;stroke-width:0.1;stroke-linecap:butt;stroke-linejoin:miter;stroke-miterlimit:7.87931013;stroke-dasharray:none;stroke-opacity:1"
     d="m 23.416072,55.181858 v -3.0327"
     id="path4951"
     inkscape:connector-curvature="0" />
  <text
     xml:space="preserve"
     style="font-style:normal;font-weight:normal;font-size:10.58333397px;line-height:125%;font-family:sans-serif;letter-spacing:0px;word-spacing:0px;fill:#000000;fill-opacity:1;stroke:none;stroke-width:0.26458335px;stroke-linecap:butt;stroke-linejoin:miter;stroke-opacity:1"
     x="4.5686169"
     y="11.917837"
     id="text4955"><tspan
       sodipodi:role="line"
       id="tspan4953"
       x="4.5686169"
       y="11.917837"
       style="stroke-width:0.26458335px;fill:#0000ff">Material: 3 mm hoop ply.  Extras: None</tspan></text>
</svg>
