<svg version="1.1" xmlns="http://www.w3.org/2000/svg" xmlns:xlink="http://www.w3.org/1999/xlink" width="1048.528008316684mm" height="656.875011mm" viewBox="0 0 1048.528008316684 656.875011"><g transform="translate(-11.3057,-5.63241)"><g fill="none" stroke="none" stroke-width="none" stroke-linecap="none" stroke-linejoin="miter" stroke-miterlimit="none" stroke-dasharray="" stroke-dashoffset="0" font-family="none" font-weight="none" font-size="12" text-anchor="start" mix-blend-mode="normal"><g stroke-opacity="0" stroke="#000000" stroke-width="1" stroke-linecap="butt" stroke-miterlimit="10" font-family="sans-serif" font-weight="normal"></g><g stroke-width="1" stroke-linecap="butt" stroke-miterlimit="10" font-family="sans-serif" font-weight="normal"></g><g stroke-width="1" stroke-linecap="butt" stroke-miterlimit="10" font-family="sans-serif" font-weight="normal"></g><g stroke-width="1" stroke-linecap="butt" stroke-miterlimit="10" font-family="sans-serif" font-weight="normal"></g><g stroke="#00aaff" stroke-width="2" stroke-linecap="butt" stroke-miterlimit="10" font-family="sans-serif" font-weight="normal"></g><g stroke-width="1" stroke-linecap="butt" stroke-miterlimit="10" font-family="sans-serif" font-weight="normal"></g><g id="shape" stroke-linecap="round"><path d="M915,498.29166l0,133.5103" id="joint" fill="none" stroke="#ff0000" stroke-width="1" stroke-miterlimit="4" font-family="Roboto, sans-serif" font-weight="400"></path><path d="M1004.99999,498.29166l0,133.5103" id="joint" fill="none" stroke="#ff0000" stroke-width="1" stroke-miterlimit="4" font-family="Roboto, sans-serif" font-weight="400"></path><path d="M1004.99999,498.29166l-89.99999,0" id="joint" fill="none" stroke="#ff0000" stroke-width="1" stroke-miterlimit="4" font-family="Roboto, sans-serif" font-weight="400"></path><path d="M1004.99999,631.80196l-89.99999,0" id="joint" fill="none" stroke="#ff0000" stroke-width="1" stroke-miterlimit="4" font-family="Roboto, sans-serif" font-weight="400"></path><path d="M1004.99999,487.70832l-89.99999,0" id="joint" fill="none" stroke="#ff0000" stroke-width="1" stroke-miterlimit="4" font-family="Roboto, sans-serif" font-weight="400"></path><path d="M1004.99999,457.70832l-89.99999,0" id="joint" fill="none" stroke="#ff0000" stroke-width="1" stroke-miterlimit="4" font-family="Roboto, sans-serif" font-weight="400"></path><path d="M915,487.70832l0,-30" id="joint" fill="none" stroke="#ff0000" stroke-width="1" stroke-miterlimit="4" font-family="Roboto, sans-serif" font-weight="400"></path><path d="M1004.99999,487.70832l0,-30" id="joint" fill="none" stroke="#ff0000" stroke-width="1" stroke-miterlimit="4" font-family="Roboto, sans-serif" font-weight="400"></path><path d="M1004.99999,653.87501l-89.99999,0" id="joint" fill="none" stroke="#ff0000" stroke-width="1" stroke-miterlimit="4" font-family="Roboto, sans-serif" font-weight="400"></path><path d="M1004.99999,643.87501l-89.99999,0" id="joint" fill="none" stroke="#ff0000" stroke-width="1" stroke-miterlimit="4" font-family="Roboto, sans-serif" font-weight="400"></path><path d="M915,653.87501l0,-10" id="joint" fill="none" stroke="#ff0000" stroke-width="1" stroke-miterlimit="4" font-family="Roboto, sans-serif" font-weight="400"></path><path d="M1004.99999,653.87501l0,-10" id="joint" fill="none" stroke="#ff0000" stroke-width="1" stroke-miterlimit="4" font-family="Roboto, sans-serif" font-weight="400"></path><path d="M1015.58333,498.29166l30,0" id="joint" fill="none" stroke="#ff0000" stroke-width="1" stroke-miterlimit="4" font-family="Roboto, sans-serif" font-weight="400"></path><path d="M1025.58334,631.80196l-10,0" id="joint" fill="none" stroke="#ff0000" stroke-width="1" stroke-miterlimit="4" font-family="Roboto, sans-serif" font-weight="400"></path><path d="M1015.58333,498.29166l0,133.5103" id="joint" fill="none" stroke="#ff0000" stroke-width="1" stroke-miterlimit="4" font-family="Roboto, sans-serif" font-weight="400"></path><path d="M1045.58334,498.29166l-20,133.5103" id="joint" fill="none" stroke="#ff0000" stroke-width="1" stroke-miterlimit="4" font-family="Roboto, sans-serif" font-weight="400"></path><path d="M904.41667,498.29166l-30,0" id="joint" fill="none" stroke="#ff0000" stroke-width="1" stroke-miterlimit="4" font-family="Roboto, sans-serif" font-weight="400"></path><path d="M894.41667,631.80196l10,0" id="joint" fill="none" stroke="#ff0000" stroke-width="1" stroke-miterlimit="4" font-family="Roboto, sans-serif" font-weight="400"></path><path d="M904.41667,498.29166l0,133.5103" id="joint" fill="none" stroke="#ff0000" stroke-width="1" stroke-miterlimit="4" font-family="Roboto, sans-serif" font-weight="400"></path><path d="M874.41667,498.29166l20,133.5103" id="joint" fill="none" stroke="#ff0000" stroke-width="1" stroke-miterlimit="4" font-family="Roboto, sans-serif" font-weight="400"></path><path d="M915.00001,447.12499l0,-135" id="joint" fill="none" stroke="#ff0000" stroke-width="1" stroke-miterlimit="4" font-family="Roboto, sans-serif" font-weight="400"></path><path d="M1004.99999,447.12499l0,-135" id="joint" fill="none" stroke="#ff0000" stroke-width="1" stroke-miterlimit="4" font-family="Roboto, sans-serif" font-weight="400"></path><path d="M1004.99999,312.12499l-89.99999,0" id="joint" fill="none" stroke="#ff0000" stroke-width="1" stroke-miterlimit="4" font-family="Roboto, sans-serif" font-weight="400"></path><path d="M1004.99999,447.12499l-89.99999,0" id="joint" fill="none" stroke="#ff0000" stroke-width="1" stroke-miterlimit="4" font-family="Roboto, sans-serif" font-weight="400"></path><path d="M997.99962,319.12484l-76,0" id="path907" fill="none" stroke="#000000" stroke-width="0.5" stroke-miterlimit="4" font-family="Roboto, sans-serif" font-weight="400"></path><path d="M921.99962,319.12484l0,121" id="path911" fill="none" stroke="#000000" stroke-width="0.5" stroke-miterlimit="4" font-family="Roboto, sans-serif" font-weight="400"></path><path d="M997.99962,440.12484l-76,0" id="path915" fill="none" stroke="#000000" stroke-width="0.5" stroke-miterlimit="4" font-family="Roboto, sans-serif" font-weight="400"></path><path d="M997.99962,319.12484l0,121" id="path917" fill="none" stroke="#000000" stroke-width="0.5" stroke-miterlimit="4" font-family="Roboto, sans-serif" font-weight="400"></path><g id="23_joint" stroke="#0000ff" stroke-width="1" stroke-miterlimit="10" font-family="sans-serif" font-weight="normal"><path d="M1004.99999,447.12499l0,0l0,0l0,3l-9,0l0,-3l0,0l0,0l-9,0l0,0l0,0l0,3l-9,0l0,-3l0,0l0,0l-9,0l0,0l0,0l0,3l-9,0l0,-3l0,0l0,0l-9,0l0,0l0,0l0,3l-9,0l0,-3l0,0l0,0l-9,0l0,0l0,0l0,3l-9,0l0,-3l0,0l0,0l-9,0l0,0"></path></g><g id="5_joint" stroke="#0000ff" stroke-width="1" stroke-miterlimit="10" font-family="sans-serif" font-weight="normal"><path d="M1004.99999,457.70832l0,0l-9,0l0,0l0,0l0,-3l-9,0l0,3l0,0l0,0l-9,0l0,0l0,0l0,-3l-9,0l0,3l0,0l0,0l-9,0l0,0l0,0l0,-3l-9,0l0,3l0,0l0,0l-9,0l0,0l0,0l0,-3l-9,0l0,3l0,0l0,0l-9,0l0,0l0,0l0,-3l-9,0l0,3l0,0l0,0"></path></g><g id="4_joint" stroke="#0000ff" stroke-width="1" stroke-miterlimit="10" font-family="sans-serif" font-weight="normal"><path d="M1004.99999,487.70832l0,0l0,0l0,3l-9,0l0,-3l0,0l0,0l-9,0l0,0l0,0l0,3l-9,0l0,-3l0,0l0,0l-9,0l0,0l0,0l0,3l-9,0l0,-3l0,0l0,0l-9,0l0,0l0,0l0,3l-9,0l0,-3l0,0l0,0l-9,0l0,0l0,0l0,3l-9,0l0,-3l0,0l0,0l-9,0l0,0"></path></g><g id="2_joint" stroke="#0000ff" stroke-width="1" stroke-miterlimit="10" font-family="sans-serif" font-weight="normal"><path d="M1004.99999,498.29166l0,0l-9,0l0,0l0,0l0,-3l-9,0l0,3l0,0l0,0l-9,0l0,0l0,0l0,-3l-9,0l0,3l0,0l0,0l-9,0l0,0l0,0l0,-3l-9,0l0,3l0,0l0,0l-9,0l0,0l0,0l0,-3l-9,0l0,3l0,0l0,0l-9,0l0,0l0,0l0,-3l-9,0l0,3l0,0l0,0"></path></g><g id="7_joint" stroke="#0000ff" stroke-width="1" stroke-miterlimit="10" font-family="sans-serif" font-weight="normal"><path d="M1004.99999,487.70832l0,0l0,0l3,0l0,-15l-3,0l0,0l0,0l0,-15l0,0"></path></g><g id="12_joint" stroke="#0000ff" stroke-width="1" stroke-miterlimit="10" font-family="sans-serif" font-weight="normal"><path d="M1015.58333,498.29166l0,0l15,0l0,0l0,0l0,-3l15,0l0,3l0,0l0,0"></path></g><g id="6_joint" stroke="#0000ff" stroke-width="1" stroke-miterlimit="10" font-family="sans-serif" font-weight="normal"><path d="M915,487.70832l0,0l0,0l-3,0l0,-15l3,0l0,0l0,0l0,-15l0,0"></path></g><g id="16_joint" stroke="#0000ff" stroke-width="1" stroke-miterlimit="10" font-family="sans-serif" font-weight="normal"><path d="M904.41667,498.29166l0,0l-15,0l0,0l0,0l0,-3l-15,0l0,3l0,0l0,0"></path></g><g id="18_joint" stroke="#0000ff" stroke-width="1" stroke-miterlimit="10" font-family="sans-serif" font-weight="normal"><path d="M904.41667,498.29166l0,0l0,0l3,0l0,8.34439l-3,0l0,0l0,0l0,8.34439l0,0l0,0l3,0l0,8.34439l-3,0l0,0l0,0l0,8.34439l0,0l0,0l3,0l0,8.34439l-3,0l0,0l0,0l0,8.34439l0,0l0,0l3,0l0,8.34439l-3,0l0,0l0,0l0,8.34439l0,0l0,0l3,0l0,8.34439l-3,0l0,0l0,0l0,8.34439l0,0l0,0l3,0l0,8.34439l-3,0l0,0l0,0l0,8.34439l0,0l0,0l3,0l0,8.34439l-3,0l0,0l0,0l0,8.34439l0,0l0,0l3,0l0,8.34439l-3,0l0,0l0,0l0,8.34439l0,0"></path></g><g id="0_joint" stroke="#0000ff" stroke-width="1" stroke-miterlimit="10" font-family="sans-serif" font-weight="normal"><path d="M915,498.29166l0,0l0,8.34439l0,0l0,0l-3,0l0,8.34439l3,0l0,0l0,0l0,8.34439l0,0l0,0l-3,0l0,8.34439l3,0l0,0l0,0l0,8.34439l0,0l0,0l-3,0l0,8.34439l3,0l0,0l0,0l0,8.34439l0,0l0,0l-3,0l0,8.34439l3,0l0,0l0,0l0,8.34439l0,0l0,0l-3,0l0,8.34439l3,0l0,0l0,0l0,8.34439l0,0l0,0l-3,0l0,8.34439l3,0l0,0l0,0l0,8.34439l0,0l0,0l-3,0l0,8.34439l3,0l0,0l0,0l0,8.34439l0,0l0,0l-3,0l0,8.34439l3,0l0,0l0,0"></path></g><g id="1_joint" stroke="#0000ff" stroke-width="1" stroke-miterlimit="10" font-family="sans-serif" font-weight="normal"><path d="M1004.99999,498.29166l0,0l0,0l3,0l0,8.34439l-3,0l0,0l0,0l0,8.34439l0,0l0,0l3,0l0,8.34439l-3,0l0,0l0,0l0,8.34439l0,0l0,0l3,0l0,8.34439l-3,0l0,0l0,0l0,8.34439l0,0l0,0l3,0l0,8.34439l-3,0l0,0l0,0l0,8.34439l0,0l0,0l3,0l0,8.34439l-3,0l0,0l0,0l0,8.34439l0,0l0,0l3,0l0,8.34439l-3,0l0,0l0,0l0,8.34439l0,0l0,0l3,0l0,8.34439l-3,0l0,0l0,0l0,8.34439l0,0l0,0l3,0l0,8.34439l-3,0l0,0l0,0l0,8.34439l0,0"></path></g><g id="14_joint" stroke="#0000ff" stroke-width="1" stroke-miterlimit="10" font-family="sans-serif" font-weight="normal"><path d="M1015.58333,498.29166l0,0l0,8.34439l0,0l0,0l-3,0l0,8.34439l3,0l0,0l0,0l0,8.34439l0,0l0,0l-3,0l0,8.34439l3,0l0,0l0,0l0,8.34439l0,0l0,0l-3,0l0,8.34439l3,0l0,0l0,0l0,8.34439l0,0l0,0l-3,0l0,8.34439l3,0l0,0l0,0l0,8.34439l0,0l0,0l-3,0l0,8.34439l3,0l0,0l0,0l0,8.34439l0,0l0,0l-3,0l0,8.34439l3,0l0,0l0,0l0,8.34439l0,0l0,0l-3,0l0,8.34439l3,0l0,0l0,0l0,8.34439l0,0l0,0l-3,0l0,8.34439l3,0l0,0l0,0"></path></g><g id="3_joint" stroke="#0000ff" stroke-width="1" stroke-miterlimit="10" font-family="sans-serif" font-weight="normal"><path d="M1004.99999,631.80196l0,0l0,0l0,3l-9,0l0,-3l0,0l0,0l-9,0l0,0l0,0l0,3l-9,0l0,-3l0,0l0,0l-9,0l0,0l0,0l0,3l-9,0l0,-3l0,0l0,0l-9,0l0,0l0,0l0,3l-9,0l0,-3l0,0l0,0l-9,0l0,0l0,0l0,3l-9,0l0,-3l0,0l0,0l-9,0l0,0"></path></g><g id="9_joint" stroke="#0000ff" stroke-width="1" stroke-miterlimit="10" font-family="sans-serif" font-weight="normal"><path d="M1004.99999,643.87501l0,0l-9,0l0,0l0,0l0,-3l-9,0l0,3l0,0l0,0l-9,0l0,0l0,0l0,-3l-9,0l0,3l0,0l0,0l-9,0l0,0l0,0l0,-3l-9,0l0,3l0,0l0,0l-9,0l0,0l0,0l0,-3l-9,0l0,3l0,0l0,0l-9,0l0,0l0,0l0,-3l-9,0l0,3l0,0l0,0"></path></g><g id="11_joint" stroke="#0000ff" stroke-width="1" stroke-miterlimit="10" font-family="sans-serif" font-weight="normal"><path d="M1004.99999,653.87501l0,-10"></path></g><g id="13_joint" stroke="#0000ff" stroke-width="1" stroke-miterlimit="10" font-family="sans-serif" font-weight="normal"><path d="M1025.58334,631.80196l-10,0"></path></g><g id="10_joint" stroke="#0000ff" stroke-width="1" stroke-miterlimit="10" font-family="sans-serif" font-weight="normal"><path d="M915,653.87501l0,-10"></path></g><g id="17_joint" stroke="#0000ff" stroke-width="1" stroke-miterlimit="10" font-family="sans-serif" font-weight="normal"><path d="M894.41667,631.80196l10,0"></path></g><g id="8_joint" stroke="#0000ff" stroke-width="1" stroke-miterlimit="10" font-family="sans-serif" font-weight="normal"><path d="M1004.99999,653.87501l0,0l0,0l0,3l-9,0l0,-3l0,0l0,0l-9,0l0,0l0,0l0,3l-9,0l0,-3l0,0l0,0l-9,0l0,0l0,0l0,3l-9,0l0,-3l0,0l0,0l-9,0l0,0l0,0l0,3l-9,0l0,-3l0,0l0,0l-9,0l0,0l0,0l0,3l-9,0l0,-3l0,0l0,0l-9,0l0,0"></path></g><g id="22_joint" stroke="#0000ff" stroke-width="1" stroke-miterlimit="10" font-family="sans-serif" font-weight="normal"><path d="M1004.99999,312.12499l0,0l-9,0l0,0l0,0l0,-3l-9,0l0,3l0,0l0,0l-9,0l0,0l0,0l0,-3l-9,0l0,3l0,0l0,0l-9,0l0,0l0,0l0,-3l-9,0l0,3l0,0l0,0l-9,0l0,0l0,0l0,-3l-9,0l0,3l0,0l0,0l-9,0l0,0l0,0l0,-3l-9,0l0,3l0,0l0,0"></path></g><g id="20_joint" stroke="#0000ff" stroke-width="1" stroke-miterlimit="10" font-family="sans-serif" font-weight="normal"><path d="M915.00001,447.12499l0,0l0,-0.15l-3,0l0,-8.1375l3,0l0,-0.15l0,0l0,-8.4375l0,0l0,-0.15l-3,0l0,-8.1375l3,0l0,-0.15l0,0l0,-8.4375l0,0l0,-0.15l-3,0l0,-8.1375l3,0l0,-0.15l0,0l0,-8.4375l0,0l0,-0.15l-3,0l0,-8.1375l3,0l0,-0.15l0,0l0,-8.4375l0,0l0,-0.15l-3,0l0,-8.1375l3,0l0,-0.15l0,0l0,-8.4375l0,0l0,-0.15l-3,0l0,-8.1375l3,0l0,-0.15l0,0l0,-8.4375l0,0l0,-0.15l-3,0l0,-8.1375l3,0l0,-0.15l0,0l0,-8.4375l0,0l0,-0.15l-3,0l0,-8.1375l3,0l0,-0.15l0,0l0,-8.4375l0,0"></path></g><g id="19_joint" stroke="#0000ff" stroke-width="1" stroke-miterlimit="10" font-family="sans-serif" font-weight="normal"><path d="M874.41667,498.29166l0,0l1.25,8.34439l0,0l0.02222,0.14834l-2.9669,0.44444l1.20556,8.0477l2.9669,-0.44444l0.02222,0.14834l0,0l1.25,8.34439l0,0l0.02222,0.14834l-2.9669,0.44444l1.20556,8.0477l2.9669,-0.44444l0.02222,0.14834l0,0l1.25,8.34439l0,0l0.02222,0.14834l-2.9669,0.44444l1.20556,8.0477l2.9669,-0.44444l0.02222,0.14834l0,0l1.25,8.34439l0,0l0.02222,0.14834l-2.9669,0.44444l1.20556,8.0477l2.9669,-0.44444l0.02222,0.14834l0,0l1.25,8.34439l0,0l0.02222,0.14834l-2.9669,0.44444l1.20556,8.0477l2.9669,-0.44444l0.02222,0.14834l0,0l1.25,8.34439l0,0l0.02222,0.14834l-2.9669,0.44444l1.20556,8.0477l2.9669,-0.44444l0.02222,0.14834l0,0l1.25,8.34439l0,0l0.02222,0.14834l-2.9669,0.44444l1.20556,8.0477l2.9669,-0.44444l0.02222,0.14834l0,0l1.25,8.34439l0,0l0.02222,0.14834l-2.9669,0.44444l1.20556,8.0477l2.9669,-0.44444l0.02222,0.14834l0,0"></path></g><g id="15_joint" stroke="#0000ff" stroke-width="1" stroke-miterlimit="10" font-family="sans-serif" font-weight="normal"><path d="M1045.58334,498.29166l0,0l-0.02222,0.14834l2.9669,0.44444l-1.20556,8.0477l-2.9669,-0.44444l-0.02222,0.14834l0,0l-1.25,8.34439l0,0l-0.02222,0.14834l2.9669,0.44444l-1.20556,8.0477l-2.9669,-0.44444l-0.02222,0.14834l0,0l-1.25,8.34439l0,0l-0.02222,0.14834l2.9669,0.44444l-1.20556,8.0477l-2.9669,-0.44444l-0.02222,0.14834l0,0l-1.25,8.34439l0,0l-0.02222,0.14834l2.9669,0.44444l-1.20556,8.0477l-2.9669,-0.44444l-0.02222,0.14834l0,0l-1.25,8.34439l0,0l-0.02222,0.14834l2.9669,0.44444l-1.20556,8.0477l-2.9669,-0.44444l-0.02222,0.14834l0,0l-1.25,8.34439l0,0l-0.02222,0.14834l2.9669,0.44444l-1.20556,8.0477l-2.9669,-0.44444l-0.02222,0.14834l0,0l-1.25,8.34439l0,0l-0.02222,0.14834l2.9669,0.44444l-1.20556,8.0477l-2.9669,-0.44444l-0.02222,0.14834l0,0l-1.25,8.34439l0,0l-0.02222,0.14834l2.9669,0.44444l-1.20556,8.0477l-2.9669,-0.44444l-0.02222,0.14834l0,0l-1.25,8.34439l0,0"></path></g><g id="21_joint" stroke="#0000ff" stroke-width="1" stroke-miterlimit="10" font-family="sans-serif" font-weight="normal"><path d="M1004.99999,447.12499l0,0l0,-8.4375l0,0l0,-0.15l3,0l0,-8.1375l-3,0l0,-0.15l0,0l0,-8.4375l0,0l0,-0.15l3,0l0,-8.1375l-3,0l0,-0.15l0,0l0,-8.4375l0,0l0,-0.15l3,0l0,-8.1375l-3,0l0,-0.15l0,0l0,-8.4375l0,0l0,-0.15l3,0l0,-8.1375l-3,0l0,-0.15l0,0l0,-8.4375l0,0l0,-0.15l3,0l0,-8.1375l-3,0l0,-0.15l0,0l0,-8.4375l0,0l0,-0.15l3,0l0,-8.1375l-3,0l0,-0.15l0,0l0,-8.4375l0,0l0,-0.15l3,0l0,-8.1375l-3,0l0,-0.15l0,0l0,-8.4375l0,0l0,-0.15l3,0l0,-8.1375l-3,0l0,-0.15l0,0"></path></g></g></g></g></svg>